/* XPM */
static char *aa7f403364054742f4bb2ec1dfa61095SD8lIlhCUwzgVOfd[] = {
/* columns rows colors chars-per-pixel */
"64 64 185 2 ",
"   c None",
".  c #040300",
"X  c #0A0100",
"o  c #080800",
"O  c #735E49",
"+  c #5E694B",
"@  c #6B664C",
"#  c #66694E",
"$  c #6D694E",
"%  c #70664B",
"&  c #73694E",
"*  c #6D6C53",
"=  c #776750",
"-  c #786650",
";  c #736C54",
":  c #796D55",
">  c #756E59",
",  c #7C6E5A",
"<  c #677557",
"1  c #6C7255",
"2  c #6E745A",
"3  c #6D7A5C",
"4  c #747156",
"5  c #7B7156",
"6  c #73745A",
"7  c #7B735C",
"8  c #74795E",
"9  c #7B795E",
"0  c #7F6F60",
"q  c #6E7C62",
"w  c #757762",
"e  c #7D7460",
"r  c #747C62",
"t  c #7B7C63",
"y  c #7E7E68",
"u  c #816C57",
"i  c #826D5A",
"p  c #82745C",
"a  c #89715E",
"s  c #83785E",
"d  c #837561",
"f  c #847A63",
"g  c #8B7C65",
"h  c #8B7E69",
"j  c #907C64",
"k  c #907F6D",
"l  c #6C8367",
"z  c #738265",
"x  c #7D8267",
"c  c #7D8369",
"v  c #768869",
"b  c #7E8D70",
"n  c #868165",
"m  c #8C8166",
"M  c #82836B",
"N  c #8A826B",
"B  c #928367",
"V  c #93856B",
"C  c #9A856D",
"Z  c #94896D",
"A  c #99896F",
"S  c #948674",
"D  c #948A73",
"F  c #9C8C73",
"G  c #9A8778",
"H  c #9D8E7A",
"J  c #839072",
"K  c #9D9276",
"L  c #9D927B",
"P  c #A28973",
"I  c #A29276",
"U  c #A5947B",
"Y  c #A9957C",
"T  c #A6997C",
"R  c #AB9A7D",
"E  c #B09D7F",
"W  c #AA9480",
"Q  c #A59B83",
"!  c #AD9C82",
"~  c #AD9D8B",
"^  c #B29D82",
"/  c #B49E89",
"(  c #A7A380",
")  c #ACA284",
"_  c #AEA48A",
"`  c #AFA88E",
"'  c #B2A285",
"]  c #B4A48B",
"[  c #B9A68B",
"{  c #B7AA8D",
"}  c #BBAB8E",
"|  c #B7B38E",
" . c #B3A793",
".. c #BDAD92",
"X. c #B5AA98",
"o. c #B2AA93",
"O. c #BDB296",
"+. c #BEB39C",
"@. c #BEB898",
"#. c #BBB4A1",
"$. c #C1AF95",
"%. c #C2AF9E",
"&. c #C3B295",
"*. c #C8B595",
"=. c #C4B59A",
"-. c #CAB59C",
";. c #C5BA9D",
":. c #CBBB9E",
">. c #D2BF9F",
",. c #C3B6A2",
"<. c #C9B7A6",
"1. c #C7BBA2",
"2. c #CCBDA2",
"3. c #CBBDAA",
"4. c #D2BDA4",
"5. c #CEBEB1",
"6. c #CDC1A3",
"7. c #CDC2AB",
"8. c #D1C2A5",
"9. c #D8C3A4",
"0. c #D2C5AA",
"q. c #D8C6AD",
"w. c #D5C9AD",
"e. c #DBCAAD",
"r. c #D2C4B2",
"t. c #D5CCB2",
"y. c #DACCB3",
"u. c #D4CBBA",
"i. c #DCD1B5",
"p. c #DDD3BB",
"a. c #DFD8BD",
"s. c #E2CCB4",
"d. c #E3CFB9",
"f. c #E2D3B6",
"g. c #E3D5BC",
"h. c #E9D6BC",
"j. c #E4D9BE",
"k. c #E9DABD",
"l. c #E5D6C4",
"z. c #EAD7C2",
"x. c #E4DCC3",
"c. c #EBDBC3",
"v. c #E5DAC8",
"b. c #EADECA",
"n. c #F1D6C3",
"m. c #F1DFCB",
"M. c #F1DBC4",
"N. c #E7E0C6",
"B. c #EBE0C6",
"V. c #E6E0C8",
"C. c #EBE2CB",
"Z. c #EFE8CE",
"A. c #F0E0C6",
"S. c #F2E3CC",
"D. c #F3E8CD",
"F. c #EEE5D2",
"G. c #EEECD5",
"H. c #F4E6D3",
"J. c #F4EBD4",
"K. c #F9EBD4",
"L. c #F7E7D8",
"P. c #F5EDDB",
"I. c #F6EFDD",
"U. c #F4EDDA",
"Y. c #F9EFDD",
"T. c #F9EEDB",
"R. c #EEF3DC",
"E. c #F9F1D7",
"W. c #F7F1DD",
"Q. c #F5F0DA",
"!. c #F8F1DF",
"~. c #FBF2DC",
"^. c #FFF8DE",
"/. c #F9EEE1",
"(. c #F6F4E2",
"). c #FCF4E2",
"_. c #F6F9E3",
"`. c #FEFAE5",
"'. c #FDF5EB",
"]. c #FFFBEA",
"[. c #FFFCEB",
"{. c #FFFEEE",
"}. c #FFFCEB",
"|. c #FFFFF1",
" X c #FFFCF2",
/* pixels */
"                                      c f e d i d u d n                                                                         ",
"                                  r 8 8 > X , , i - : ; t b                                                                     ",
"                              z 8 4 6 > f S H G k g 7 ; . 1 r                                                                   ",
"                            v 1 4 ; D #.C.v.F.b.b.3.o.L 9 * r r                                                                 ",
"                            3 6 : ] l.T.U.].].{.W.Q.l.7._ m ; 8 z                                                               ",
"                          z r * ! s.S.).`.[.|.`.].W.J.p.r.] = 4 z                                                               ",
"                          8 . 9 -.z.S.Y.!.[.|.{.[.U.F.p.2.$.j 7 3                                                               ",
"                          r * D 4.M.H.L.U.).(.(.U.W.V.g.2.2.I % 8                                                               ",
"                          2 > h 2.g.A.L.T.U.U.I.U.U.b.t.1.2.Z 4 r                                                               ",
"                          y X 7 ..i.B.H.I.I.W.!.T.C.x.1.6.1.V 4 3                                                               ",
"                          M > 7 ) 7.a.N.F.F.J.H.b.g.g.w.;.;.f . 3                                                               ",
"              z 3 3 < r y 6 > , K @.t.a.v.x.x.c.x.c.y.2.0.` @ 8 v                                                               ",
"          c 1 8 6 6 6 6 * > > ; Z _ 1.i.x.x.k.z.g.A.2.2.2.L 9 8 l                                                               ",
"          8 7 > e D D D L f N 7 V R ..0.k.k.k.k.k.e.q.2.1.S ; 6                                                                 ",
"        * > 7 ~ 2.f.x.b.l.l.r.3...-.-.8.f.k.k.k.k.f.2.:.=.p e t                                                                 ",
"        e , Q y.A.K.~.[.`.).T.H.A.A.s.q.f.k.k.k.k.f.8.2.] , , M                                                                 ",
"      4 , V 7.x.H.W.`.[.].(./.T.K.c.h.h.c.c.c.A.c.k.p.1.L : d y                                                                 ",
"      ; : ~ t.C.J.E.^.).(.(.I.T.H.c.z.c.c.z.c.K.K.D.i.w.+.5 X 9                                                                 ",
"      X p +.t.p.B.D.K.T.I.I.L.H.c.k.k.c.z.g.c.K.D.^.D.p.1._ 7 9 3                                                               ",
"    3 ; h =.1.k.k.B.S.S.C.C.b.l.z.k.k.z.z.k.c.C.E.J.~.V.r.7.V ; 8 3                                                             ",
"    2 * D 2.1.0.g.z.c.z.g.x.c.g.c.k.j.p.g.x.c.k.N.J.~.`.C.r.,.d ; 6 c                                                           ",
"    r ; d =.:.2.q.s.h.z.c.c.c.k.g.i.w.0.y.j.c.x.N.C.J.~.`.x.r.] p X 2                                                           ",
"    t ; - Y -.2.2.8.e.g.g.g.p.i.0.6.:.;.6.w.g.x.a.V.V.~.~.{.l.7.H 9 > t                                                         ",
"      7 u a ] $.4.:.2.8.8.6.6.6.6.:.=.:.:.2.w.g.x.x.V.J.!.T.].l.,.V : 9 x                                                       ",
"      y X p F ! { ..-.-.2.-.O.=.{ ' ! [ ^ &.8.w.p.x.x.V.U.W.T.[.p. .d ; 8                                                       ",
"        9 ; 7 V K ) ! ^ Y ] ) Q ! U ! I [ ^ -.2.w.i.x.x.v.U.).!.~.i.Q p > 6                                                     ",
"          6 . 4 9 n m A P B V m f f p F Y ^ R &.2.0.i.x.x.C.J.W.`.!.r.S : 9 3                                                   ",
"              3 . 1 7 : O p ; 4 6 ; ; p H R ^ ' $.2.0.i.B.x.N.W.Q.`.L.,.h ; 8 z                                                 ",
"                    1 9 , ; t 1 2 8 6 4 5 F ! ! ^ -.2.6.i.j.x.Z.U.).].F. .7 ; t                                                 ",
"                                    r 6 4 ; F R ! ^ $.2.0.y.x.B.T.U.).`.p.L : > 2                                               ",
"                                        4 5 p I E Y ' &.:.8.i.k.S.H.U.).Q.r.H : 7 2                                             ",
"                                          4 4 p I ^ ! ' -.6.8.y.g.H.U.U.].U.+.h ; 9 8                                           ",
"                                            8 ; p T ! R [ :.:.8.f.g.S.T.U.].b.X.f * 2 J                                         ",
"                                              8 7 f ! ! Y [ :.:.8.f.l.H.T.I.`.u.Q 9 . 6 +                                       ",
"                                                6 4 V ! ' R } 4.2.0.g.v.H.U.).U.r.L ; 4 8 c q z z q 3 r w r                     ",
"                                                6 X , F R ! I &.2.8.y.p.v.I.J.~.D.1.D & X * 6 6 . 6 > X X > e >                 ",
"                                                  6 7 p A ^ ' ' ..8.2.y.l.C.T.K.D.k.1.V : ; > ; , , , d d , 0 , ; 4 8           ",
"                                                    ; p p F ! U ' &.0.7.p.x.H.J.^.S.f.8.] ] ] =.%.<.r.3.5.r.~ G g , X 9         ",
"                                                      $ : s ] R ^ ) 6.;.0.j.j.D.H.~.A.g.c.f.c.f.c.H.U.`.].).T.l.<.U , ; r       ",
"                                                        6 ; m ! R ' { :.6.i.j.B.J.~.D.z.c.h.c.c.H.U.I.`.{.[.[.`.H.g.! p X 2     ",
"                                                          o p A R R R =.2.6.i.x.c.J.K.B.g.k.c.k.A.H.W._.}.{.{.[.~.H.y.Z ; 6     ",
"                                                          6 $ p U ^ R ' -.8.y.j.x.D.D.B.k.c.c.k.z.m.J.U.R._._.`.^.H.g.=.; > x   ",
"                                                            4 5 g R ' R ] =.0.g.j.V.Z.N.j.k.k.g.h.n.m.H.G.Q.U.J.C.z.d.=.s X r   ",
"                                                              > & V ^ R ! ..1.i.l.v.v.x.l.k.g.f.s.s.d.l.V.C.C.B.c.y.q.;.m 9 *   ",
"                                                                ; 5 H ! ^ } =.w.x.l.l.l.x.x.g.s.4.4.4.0.y.p.g.g.y.q.2.;.N 4 8   ",
"                                                                8 & m R R ' :.y.b.b.v.l.x.c.k.f.:.:.2.6.0.0.w.q.4.-.2.1.9 1     ",
"                                                                r ; 7 K R [ q.c.K.K.H.b.x.c.k.f.6.;.;.;.1.1.2.2.4.4.2._ t .     ",
"                                                                c 7 & V { 2.z.K.`.].).F.x.z.h.f.6.| ( ) { -.-.-.-.-.[ L 6 1     ",
"                                                                M 7 : D :.g.H.).|.{. X/.l.z.k.0.8.' R E R ^ ^ ^ ^ ^ I s 4 1     ",
"                                                                M : 9 T y.g.L.).|. X'.U.l.z.h.8.&.' ' T U ^ ^ ^ / C p 7 *       ",
"                                                                r 7 : _ i.c.T.).{.{.'.F.v.z.f.:.:.B 5 m m Z s B p 9 7 #         ",
"                                                                  X p O.y.c.H.!.).).I.F.v.f.0.:.-.g 5 ; 5 @ 4 $ X 2             ",
"                                                                  X f =.0.i.c.J.J.J.F.V.g.w.6.2.:.F & 4 8                       ",
"                                                                6 7 d O.2.0.f.B.C.C.v.p.t.6.:.6.$.T p >                         ",
"                                                                w ; h =.0.2.0.w.f.i.y.0.6.1.:.:...H , .                         ",
"                                                                  ; 7 ..=.8.:.2.2.6.6.;.:.6.6.-./ ~ f .                         ",
"                                                                  X d T &.:.q.*.>.2.:.2.:.8.-.] ^ W , .                         ",
"                                                                  * 7 L R } [ 9.>.:.:.6.:.-.{ ' W U d 6                         ",
"                                                                  y ; e ~ ! ! R ^ } ..{ ' ! ! I ] g @ 6                         ",
"                                                                    6 9 V T ] ^ ' R R ^ R [ ! ] h , . 3                         ",
"                                                                    1 2 7 h L ! ! ! ' ! R U H h > 6 8                           ",
"                                                                      2 . > : g m g B Z g h , ; o 1                             ",
"                                                                        2 > 7 7 : p & & : X : 4 8                               ",
"                                                                          M e 7 , : 5 5 7 ; h                                   "
};
