/* XPM */
static char *_44e2c3c78a74ce295a43d4251c7b5bbBTGbfKoKYGuQ1tl6[] = {
/* columns rows colors chars-per-pixel */
"64 64 249 2 ",
"   c None",
".  c #1B0900",
"X  c #1B120E",
"o  c #0F0802",
"O  c #260C02",
"+  c #281409",
"@  c #38190B",
"#  c #291A15",
"$  c #371B15",
"%  c #300C00",
"&  c #38230C",
"*  c #392418",
"=  c #3B2823",
"-  c #3D3729",
";  c #3D3334",
":  c #481409",
">  c #461A15",
",  c #561D02",
"<  c #48240B",
"1  c #5C230D",
"2  c #44251C",
"3  c #472514",
"4  c #592916",
"5  c #58341B",
"6  c #4E341D",
"7  c #65290D",
"8  c #622916",
"9  c #68361A",
"0  c #6F3316",
"q  c #432C24",
"w  c #472D26",
"e  c #562922",
"r  c #4C322B",
"t  c #473928",
"y  c #5B3422",
"u  c #57362B",
"i  c #4B3432",
"p  c #5B3D3A",
"a  c #563833",
"s  c #693726",
"d  c #753E28",
"f  c #65352E",
"g  c #5B433C",
"h  c #5F4136",
"j  c #59452D",
"k  c #78462B",
"l  c #684939",
"z  c #754A35",
"x  c #77553A",
"c  c #6C4A2E",
"v  c #70431A",
"b  c #5C4C45",
"n  c #5A5945",
"m  c #654A43",
"M  c #684A46",
"N  c #6C5244",
"B  c #6A554A",
"V  c #725B4D",
"C  c #7A584A",
"Z  c #6A5754",
"A  c #785B53",
"S  c #6F4D49",
"D  c #5B654D",
"F  c #5D7154",
"G  c #6E664A",
"H  c #78624C",
"J  c #7D625B",
"K  c #7B6357",
"L  c #78775C",
"P  c #6C7057",
"I  c #786965",
"U  c #797666",
"Y  c #6B6660",
"T  c #813C1F",
"R  c #813C24",
"E  c #8D511A",
"W  c #A95B13",
"Q  c #AC641D",
"!  c #87482B",
"~  c #85572A",
"^  c #874B37",
"/  c #924A32",
"(  c #8A5739",
")  c #965636",
"_  c #92552E",
"`  c #87633B",
"'  c #95633A",
"]  c #A66A3A",
"[  c #B06D2F",
"{  c #C97730",
"}  c #865A47",
"|  c #945943",
" . c #82564E",
".. c #A55B43",
"X. c #8B6345",
"o. c #926449",
"O. c #986749",
"+. c #846A5C",
"@. c #8B6C5D",
"#. c #876758",
"$. c #8C745D",
"%. c #997659",
"&. c #986D4F",
"*. c #A96B48",
"=. c #A8764A",
"-. c #B3764A",
";. c #A76A54",
":. c #A87956",
">. c #BB7D53",
",. c #846B68",
"<. c #966C66",
"1. c #8C7567",
"2. c #967867",
"3. c #8B7776",
"4. c #937B75",
"5. c #987A74",
"6. c #A87C66",
"7. c #AB7E79",
"8. c #CA7E42",
"9. c #6F8070",
"0. c #D9853D",
"q. c #BA844A",
"w. c #B78757",
"e. c #B18B5C",
"r. c #9C816C",
"t. c #9C8275",
"y. c #99877A",
"u. c #8C897C",
"i. c #B98D68",
"p. c #A58C7D",
"a. c #A78876",
"s. c #A8937C",
"d. c #B8977A",
"f. c #B38D6D",
"g. c #C5895A",
"h. c #C7935C",
"j. c #C78D64",
"k. c #C59769",
"l. c #D29667",
"z. c #C79A78",
"x. c #C78C78",
"c. c #C8A67A",
"v. c #D7A579",
"b. c #D9A772",
"n. c #E5AA72",
"m. c #E8B67C",
"M. c #8E7F82",
"N. c #9A8884",
"B. c #9C9585",
"V. c #979695",
"C. c #928E8E",
"Z. c #A68B83",
"A. c #A89688",
"S. c #B69988",
"D. c #A69792",
"F. c #B79C95",
"G. c #B18C83",
"H. c #BBA387",
"J. c #ADA496",
"K. c #BCA593",
"L. c #B7A698",
"P. c #BDACA5",
"I. c #B8ABA7",
"U. c #BBB1A8",
"Y. c #B9B3B3",
"T. c #A9ACAB",
"R. c #9BA09E",
"E. c #C69A88",
"W. c #C6AB87",
"Q. c #D6AC8C",
"!. c #CAB689",
"~. c #D9B489",
"^. c #C5AA95",
"/. c #C7A998",
"(. c #C9B499",
"). c #D4B897",
"_. c #DDA890",
"`. c #EEB688",
"'. c #EBB99B",
"]. c #F0B58A",
"[. c #C2AEA3",
"{. c #C4ACAA",
"}. c #C9B7A9",
"|. c #D4BBAE",
" X c #D6BAA6",
".X c #C7BDB8",
"XX c #D2BFB2",
"oX c #D9A9A7",
"OX c #E4BDAA",
"+X c #BBC1BD",
"@X c #DDC395",
"#X c #CDC090",
"$X c #E8C296",
"%X c #EEC592",
"&X c #DAC5A9",
"*X c #D8D0A8",
"=X c #CAC1B7",
"-X c #D4C3B3",
";X c #DBC4B2",
":X c #DCC9BA",
">X c #D8C9B7",
",X c #E6C7A7",
"<X c #F6C5A1",
"1X c #E2C5B3",
"2X c #E5CBB9",
"3X c #F3CBBB",
"4X c #E8D5BA",
"5X c #F5D7BB",
"6X c #F1D6AB",
"7X c #FDE1BC",
"8X c #C6C8C8",
"9X c #D9CBC5",
"0X c #DCD6C5",
"qX c #D9D1D5",
"wX c #E2CFC4",
"eX c #E4D3C4",
"rX c #E4D3CA",
"tX c #E5DCCA",
"yX c #EADDCD",
"uX c #EBD7C6",
"iX c #F1DECB",
"pX c #F8DBC8",
"aX c #EADBD4",
"sX c #F3DFD4",
"dX c #DAE3DB",
"fX c #F8E6CB",
"gX c #ECE3D2",
"hX c #EBE7DA",
"jX c #F2E3D4",
"kX c #F4EBDA",
"lX c #FDECDB",
"zX c #F7EAD5",
"xX c #FBF4D7",
"cX c #F3E9CD",
"vX c #EEECE8",
"bX c #F3ECE2",
"nX c #FBEFE6",
"mX c #EDF2E3",
"MX c #EBF9EB",
"NX c #FDFCE4",
"BX c #FEF5EB",
"VX c #FDFCEC",
"CX c #F7F6E8",
"ZX c #EEFCF5",
"AX c #F4FFF2",
"SX c #FDFDF3",
"DX c #F7FAF9",
"FX c #ECEBF0",
"GX c #E4E2E1",
/* pixels */
"                                                                                                                                ",
"                                                                                                                                ",
"                                                                                                                                ",
"                                                                                                                                ",
"                                                                                                                                ",
"                                                                                                                                ",
"                                                                                                                                ",
"                                          VXNXVX                                                                                ",
"                                      NXfX1XH.*X            dXZXZXMX            xX@X~.$XfX    A.a.a.S.                          ",
"                                  NXfX).E.o.z &.d.H.        DXDXDXAX0X      #X!.k.w.k.w.;.( x c z } }                           ",
"                                xX).d.6.d 8 ^ O.} 2.s.  0XmXSXCXDXDXbXxXcX*Xc.e.k.>.-.) 7 , 1 4 9 8 :                           ",
"                            s.x &.X.o.d 7 0 R *.| &.H.cXkXCXCXvXFXDXbXgX*X).e.~ =.) ! ) ) ( | ;.| s                             ",
"                              5 < 9 8 1 7 R _ ) ' c.).4XxXCXCXvXDXFXbXyX2XQ.k.( 0 0 ! ;.x.z.E.z.O.                              ",
"                              v 4 8 1 0 R T ! ] k.~.@X6XzXnXbXDXvXCXnXfX).Q.z.:.k 0 | x._.'.'.z.|                               ",
"                              ` k ! ) ! / / ) >.v.%X$X@XfXlXkXbXBXkXjX,X~.z.j.j.O.0 ^ i._.'.<Xv.|                               ",
"                                ( ) ) / ../ ) l.`.].%X~.,X5XlXkXjXjXpXQ.v.k.=.*.;.d d 6._.<X`.k.z                               ",
"                                =.] ../ | ) *.`.`.n.m.m.m.,XiXyXyX4XOXi.i.' ~ ~ | ( s ^ z.$Xv.=.                                ",
"                                i.] -.) ! ) l.`.n.l.n.n.b.~.4X4XeX4XE.o.k 7 7 9 ( ^ s 9 o.z.j.(                                 ",
"                                  q.*.-.) *.n.n.q.q.h.h.k.W.&X>X>X;XS.x k X.&.( k k s 4 z :.:.o.                                ",
"                                  w.-.l.h.q.b.h.k.v.c.c.c.,X;X:X>X-X X@.c 4 < ( ( s 5 3 < z o.X.                                ",
"                                  k.k.j.>.g.l.b.z.c & l ^.1X>X0XtX0X2X1.3 < % % 4 4 < : @ < 3 2.                                ",
"                                    e.' _ ] g.k.9 6 + + F.uXsXnXbXbXyXA.@ . O % y z y 3 & @ >                                   ",
"                                    ` v ~ =.w.i.5 & . * -XBXnXkXhXSXnXrX3.g r C a.a.$.@.A * S                                   ",
"                                    !.` i.$X6X7X(.1.B.tXBXeXD.I Z Y .XBXrX9X>X:X;X^.H.Z.4.I                                     ",
"                                      W.,X7XxXfXzXkXCXVXVXB.- # X o U vXaX9X9XrXuX1X|./.P.D.GX                                  ",
"                                    NXuXlXxXxXNXVXgXVXVXBX}.- X o # C.hXqX.XL.D.L.}.}.}.{.Y.qXDX                                ",
"                                    VXBXSXVXBXtXP.9XVXSXSXaXV.; = ,.{.9X8XY.D.M K p.L.[.P.Y.8XDX                                ",
"                                  AXSXSXbXBXgX=XI A.gXlXlXsX9XN.3.{.I.U.D.N.g g K 4.A.D.I.I.8XZX                                ",
"                                  AXAXVXVXhXtX}.D.A.t.K.|.}.y.g $ S J Z b + p A ,.4.A.A.D.U.ZX                                  ",
"                                    SXVXkXtXeX>X>X>X^.V 3 u N r u a $ O + b A +.1.4.y.N.B.I.DX                                  ",
"                                    SXkXkXgXeX>XeXrXiX1Xa.x S.|.oXE.a q N +.+.1.1.4.4.N.D.hXAX                                  ",
"                                      VXbXgX2X2XrXeXuXeXpXOX<.<.<.S N 1.4.1.1.1.4.4.3.N.D.SX                                    ",
"                                      AXSXjX4X4X:XeX2X&X;XpX1XG.2.5.G.p.1.+.2.1.3.3.M.V.T.          K.                          ",
"                                        SXaXiX;X;X X X X^.K./. X/.S.r.$.$.$.@.+.+.,.V..XGXU   VX  A.fX                          ",
"                                          bXyX>XH.a.z.Q.^.K.s.6.<.<.} } } } z l p M M.Y.+XdX  NXp.$.                            ",
"                                          SXhX0X X%.' ' ` %.%.%.<. .z d 4 4 > : > i I C.8X8XgXJ.$.l                             ",
"                                          MXmXhXuXQ.g.[ Q E 0 d s y 1 1 : : : > e m I V.T.8XU.F.#.x S.                          ",
"                                          AXmXvXjXfX`.8.{ Q E X.@.<.} k s 4 : 4 l J U V.Y.T.N.Z.A C @.                          ",
"                                          ZXMXmXhXzX3X`.0.W ~ $.s.t.C 4 5 e u M #.4.u.C.R.V.,.,.+.H C K.                        ",
"                                            MXmXmXgXpX'.{ W ` l B N l y y p #.5.t.y.B.R.R.C.Z A J K A +.                        ",
"                                            kXxXcXxXpX<X{ Q ~ x +.y.^.@.J 1.Z.N.Z.A.D.D.C.3.Z M V A @.t.U                       ",
"                                            fXxXfXfXfX5Xh.[ &.@.p.K.S.1.Z.D.I.F.F.S.J.B.u.I m g m M C +.L                       ",
"                                            4X5XpXuXtXgX4X&X|.t.G./.p.y.[.P.L.F.F.Z.t.J B b a p l m C K P                       ",
"                                            &XQ.).2XyX0X0XtXiX^.6.S.S.L.XX}.L.F.Z.,.M a u r i p a p S V D                       ",
"                                            W.f.d.).&X}.>XtX,Xk.w.i.(.XX}.[.Z.5.4.A w @ @ 3 r i p i l V u.F                     ",
"                                            !.c.W. X1X[.}.2X~.q.] *.^.|./.K.2.+.5.y.V u 5 f p i q r l V - D                     ",
"                                            *X4XuXjXrX/.S.~.m.q.] =.).(.K.p.#.#.A.[.J.s.r.2.m i i q p B U F                     ",
"                                            *XxXkXgXrX-XS.c.%Xm.-.k.&X(.S.2.C 2.F.P.P.K.A.p.a w # = p B - D                     ",
"                                              iXgXgXtX>XK.s.,X,X).). X^.s.1.l t.[.P.L.A.y.,.q $ * q i i - D                     ",
"                                              jXzXkXyX>XJ.1.S.2X1X X^.S.a.C C S.XX|.P.A.N.B * $ $ q q - t D                     ",
"                                              >XkXkXyX:XL.@.@.E.^.^.K.s.2.l 2./.-XXX[.A.4.q + @ > 2 r t n D                     ",
"                                              NXhXkXiXwXXXt.N #.2.r.2.#.l u S.;X:X|.L.N.J @ + @ 2 w q t D                       ",
"                                              xXhXgXjX0X=XB.h a N l h h 2 N |.wX0X}.I.u.b + # * w $ * t U                       ",
"                                              VXhXyXgX0X>XJ.m 2 * w q 2 $ y.aXrX0X9X=XJ.b X # = 2 3 & B.                        ",
"                                            NXlXkXgXgX:XeX}.A * + # # + * [.aXaXaXaX9X.XI + # = $ @ * P                         ",
"                                            iXzXyXgXuX[.|./.C % + . O * B eXeXjXaXrXP.{.4.+ + + 3 t A.                          ",
"                                            3X3X2X:X|.S.7.7. .y 5 y c #.pX1X;X4X&X}.p.t.,.* * & t A.                            ",
"                                              1XF.a.a.<.C <. .            r.a.S.2.2.H H G G G L                                 ",
"                                                                            ^.y 4 4 y j                                         ",
"                                                                              2X  1X                                            ",
"                                                                                                                                ",
"                                                                                                                                ",
"                                                                                                                                ",
"                                                                                                                                "
};
