/* XPM */
static char *b6224c4748dc4947ef31ef9028294b74putLUeGKV0yELL9T[] = {
/* columns rows colors chars-per-pixel */
"64 64 242 2 ",
"   c None",
".  c #240E02",
"X  c #2D0E01",
"o  c #250E09",
"O  c #320E00",
"+  c #261105",
"@  c #2B1204",
"#  c #25130A",
"$  c #2D150A",
"%  c #2E190D",
"&  c #331402",
"*  c #391501",
"=  c #3B1901",
"-  c #32160A",
";  c #33190C",
":  c #371B08",
">  c #2D1A11",
",  c #2C1711",
"<  c #321B12",
"1  c #331A16",
"2  c #362517",
"3  c #3D2509",
"4  c #441E04",
"5  c #482508",
"6  c #5A3719",
"7  c #4F2A12",
"8  c #633E1C",
"9  c #663716",
"0  c #553A27",
"q  c #703E23",
"w  c #68421E",
"e  c #764D1D",
"r  c #58463B",
"t  c #6A4828",
"y  c #7B4A25",
"u  c #744D2C",
"i  c #7B4C2A",
"p  c #734726",
"a  c #7C522D",
"s  c #785227",
"d  c #7C4E32",
"f  c #7C5A34",
"g  c #7C5535",
"h  c #79644B",
"j  c #953E18",
"k  c #AC3F28",
"l  c #A8481F",
"z  c #8A4A27",
"x  c #9A4B29",
"c  c #84532C",
"v  c #835533",
"b  c #835B35",
"n  c #8B5B33",
"m  c #845D3C",
"M  c #8B5C3A",
"N  c #8E5738",
"B  c #955B38",
"V  c #985131",
"C  c #A74727",
"Z  c #B24A2D",
"A  c #AA552A",
"S  c #AA4B34",
"D  c #B14D35",
"F  c #AB5B35",
"G  c #A65737",
"H  c #B55939",
"J  c #B4522D",
"K  c #8C623D",
"L  c #886338",
"P  c #93643D",
"I  c #936A3E",
"U  c #9D6B3E",
"Y  c #956538",
"T  c #916731",
"R  c #A8613B",
"E  c #B6663A",
"W  c #994B1D",
"Q  c #C56D3E",
"!  c #865F43",
"~  c #9B5B44",
"^  c #AB5D41",
"/  c #B55B45",
"(  c #8C6443",
")  c #8C6B45",
"_  c #866746",
"`  c #946543",
"'  c #9B6544",
"]  c #946B44",
"[  c #9A6C44",
"{  c #946C4A",
"}  c #9B6C4A",
"|  c #96634A",
" . c #947146",
".. c #9B7345",
"X. c #9C734B",
"o. c #9B754C",
"O. c #986B52",
"+. c #8A7554",
"@. c #967352",
"#. c #9D7354",
"$. c #997957",
"%. c #8E6C53",
"&. c #A46E44",
"*. c #A36D4A",
"=. c #A96646",
"-. c #B66D44",
";. c #B66944",
":. c #A47344",
">. c #A4734B",
",. c #A47A4B",
"<. c #AD7A4C",
"1. c #AB7647",
"2. c #B57546",
"3. c #A17552",
"4. c #A47A56",
"5. c #AB7D5A",
"6. c #A77A56",
"7. c #B67C59",
"8. c #AD6B52",
"9. c #8A786B",
"0. c #AB7D68",
"q. c #C66A48",
"w. c #C7754A",
"e. c #CB7A56",
"r. c #93895C",
"t. c #A6814D",
"y. c #A68455",
"u. c #AC8354",
"i. c #AD825B",
"p. c #A8895C",
"a. c #B48255",
"s. c #B3855B",
"d. c #B38A5C",
"f. c #BC8C5C",
"g. c #BB8458",
"h. c #9B8D65",
"j. c #988776",
"k. c #95927F",
"l. c #8E8D6B",
"z. c #A38B63",
"x. c #A98665",
"c. c #B58D62",
"v. c #B68966",
"b. c #A7966A",
"n. c #BC9369",
"m. c #A68977",
"M. c #BA9576",
"N. c #B08773",
"B. c #BBAA7F",
"V. c #CB8E55",
"C. c #C48C5E",
"Z. c #CA895B",
"A. c #D6885B",
"S. c #CD925D",
"D. c #CA9458",
"F. c #D1955E",
"G. c #D3985E",
"H. c #C48D62",
"J. c #CA8D64",
"K. c #CD8E68",
"L. c #D78B65",
"P. c #C49364",
"I. c #CB9364",
"U. c #CD9A63",
"Y. c #C4956A",
"T. c #CB9569",
"R. c #CE9A6A",
"E. c #C0996E",
"W. c #D39263",
"Q. c #D59C65",
"!. c #D39D6C",
"~. c #D99668",
"^. c #CA9D72",
"/. c #D29E72",
"(. c #DA9D72",
"). c #C48B72",
"_. c #DCA46C",
"`. c #DAA269",
"'. c #D4A372",
"]. c #DBA472",
"[. c #DEAA73",
"{. c #DCAC7B",
"}. c #D6A679",
"|. c #D8B37E",
" X c #C5A778",
".X c #E2A76C",
"XX c #E3AC73",
"oX c #E5B077",
"OX c #E4B37B",
"+X c #EAB67D",
"@X c #EBB87F",
"#X c #E49461",
"$X c #9E9183",
"%X c #A69589",
"&X c #B49B8C",
"*X c #BCAE81",
"=X c #B8A38C",
"-X c #B9AC9F",
";X c #BEB7A9",
":X c #C9A98B",
">X c #D8AB82",
",X c #C5B489",
"<X c #DCB582",
"1X c #D8B889",
"2X c #D9B79A",
"3X c #C2B299",
"4X c #E4B583",
"5X c #E9B783",
"6X c #E3B984",
"7X c #EBBA84",
"8X c #E6BB8A",
"9X c #ECBC8A",
"0X c #EAB788",
"qX c #F1BC87",
"wX c #CAB7A7",
"eX c #FCB8A1",
"rX c #B9CCB8",
"tX c #D9C596",
"yX c #E5C593",
"uX c #C9C8B8",
"iX c #C5D2BB",
"pX c #D1D3BD",
"aX c #D3CDAC",
"sX c #E5C5A5",
"dX c #F5D3B8",
"fX c #EECDAF",
"gX c #F6E1B4",
"hX c #CAD6C3",
"jX c #DAD6CA",
"kX c #DBDBCD",
"lX c #D4D8C8",
"zX c #D7D6C9",
"xX c #FCDBC5",
"cX c #F7DBC1",
"vX c #E1DECA",
"bX c #DFE9D2",
"nX c #D7E0CD",
"mX c #E3E2CF",
"MX c #FEE5C8",
"NX c #E6E5D3",
"BX c #E6F5DA",
"VX c #EAF4E2",
/* pixels */
"                                                                                                                                ",
"                                                                                                                                ",
"                                                                                                                                ",
"                                                                                                                                ",
"                                                                                                                                ",
"                                                        ~                                                                       ",
"                                                      S / ^ m                                                                   ",
"                                                    G k D x z sX                                                                ",
"                                                G F F ;.G ;.^ ^ =.v.                                                            ",
"                                            P E J H e.W.8.K.e.H A ;.P z.                                                        ",
"                                        ~ x F W E A.K.1.y <.I.W.-.A C D V #.                                                    ",
"                                      ~ C Z A 2.S.P.>.p 4 s :.D.Q.-.Z Z D V                                                     ",
"                                    eXH Z q.~.R.f.[ 8 6 6 p e U a.(.W.-.G V 7.                                                  ",
"                                b.[ ^ H A.L.I.a.K 8 8 f w b n c U a.P.T.g.-.;.=.d.                                              ",
"                              8.R F -.Z.I.T.s.M 9 u m ] s ] ' N c B s.P.T.W.R H H G 3.                                          ",
"                          | / S A E V.U.f.] p 9 d ! ] ] s [ *.} ' c n >.f.I.W.E J C F M                                         ",
"                          R j C -.W.I.a.Y 9 9 v M ] X.] s  .o.X.&.P n a K i.I.Z.w.A x B                                         ",
"                        B V E e.!.C.>.y 9 i K M K K ] o.b o.o.[ X.[ P M d v >.I.W.A.E G >.                                      ",
"                    G D F -.W.H.s.` 9 w b b K ` K P I ..y [ 3.3. .] P ` M v c n g.~.L.e.;.^ G ).                                ",
"                  G C l w.~.H.5.g 6 8 g m ] b f b K ] >.i X.#.{  . .` ` ' N i p P >.H.L.e.q.H / 8.$.                            ",
"              { z j l A.W.C.] t 6 t t { ( f f f u b ( { i #.3.{ ) ) n ` *.' i a s a *.K.L.L.q.C D =.                            ",
"              V x w.W.I.a.P w 8 m g u m ( f m 2X2X$.u _ g m _ N.fX2X#.M P [ c b K u p B 7.~.A.w.Z F                             ",
"          U G E Z.W.P.u.K 6 a ( P n s ] ( b x.dXdX2X&Xx.%.x.:XdXcXsX4.K P I a L I I v y B 7.P.S.A.A G =.0.                      ",
"      ] V F Q A.W.R.5.u 8 b ` P Y T y K ] b ( dXxXxXxXxXcXMXMXMXxX2X@. .,.U s T ..I P B v n u.P.S.A.;.S / ~ z.                  ",
"  %.' V F Q #XW.J.' q 7 m } [ &.U T c U [ K x.MXxX2X:X&XM.M.B.sXMXdX4.,.f.<.n T ..P ` } P n Y :.f.T.~.q.D H G O.h.              ",
"fX| G x w.~.V.g.n v d p } >.&.&.:.[ c [ [ P #.2X2X0.! _ g _ ) z.2X2X3.&.I.C.T Y  .[ } ' ' &.U Y I f.I.~.w.C S ~                 ",
"  $.B 7.(.J.u.L s L { K <.<.:...} ( a ]  .I L X.@.( ) $.f @.{ ( @.#.P &.J.I.:.a.,.} ` } >.<.,...n n 1.C.T.2.z `                 ",
"    z.M.M.6.X.s ) y.y.[ <.<.,...#.( v X.X... . .) { $._ t @.x.$.@.) P :.Z.T.<.c.Y.7.*.*.*.,.t.u.[ y P 6.c.z.x.                  ",
"        +.N.O.M 3.i.u...t.y.t.o.3.{ v X.o.i.c.y.( u 6 4 X = 7 6 h $.#. .P.R.:.P.T.J.g.<.&.,.y.y.o.p b ) r.                      ",
"            0.| 6.d.u.,.t.y.u.3.} ] c ,.c.n.o.u 5 & X X - X & & 3 t ) X.Y.I.:.U.S.C.J.Z.a.u.y.p.4.( $.                          ",
"                z.n.s.u.u.i.5.6.>.&.T c.Y.X.8 = * X $ $ # @ $ @ @ & 6 M T.!.2.V.F.D.S.Q.T.P.c.s.7.x.                            ",
"              iXz.c.u.s.s.s.i.6.<.<.[ Y.y.6 O * - - , 1 o # > @ @ : & 7 5.P.1.F.D.D.D.D.!.{.}.n.v.z.                            ",
"                z.d.s.s.s.d.s.g.C.C.[ M.0 @ : & - - $ , # $ % $ @ : : X 6 v.,.U.F.V.G.Q.U.OX4X{. X                              ",
"                h.d.c.s.d.d.P.!.S.I.X.@.: + ; ; - - $ % + % $ - - - $ @ : _ 6.I.S.V.F.Q.Q.oX@X|.B.                              ",
"                h.d.s.d.P.^.'.[.Q.I.X.t X $ - ; - - $ % # % - - : - $ $ X 6 >.T.S.V.F.Q.`.OX@X<XB.                              ",
"                  d.d.P.}.4XOX].Q.H.M 5 @ ; - - - - $ % # % - - - < ; @ - 4 n !.F.V.F.Q._.OXOX<XB.                              ",
"                z.n.^.{.4X6XOX[.`.P.s & @ $ ; ; - - $ % @ $ - - - ; ; . - & i !.F.V.F.Q.].OXOX<X*X                              ",
"                b.'.4X0X7X+XoXXXQ.R.a X @ @ ; - - - $ % @ $ - - ; $ < @ $ & a /.S.S.F.Q.[.4XOX<X*X                              ",
"                 X<X0X7X7X7XoXXXQ.!.b & - $ - - - - $ ; @ - - - ; $ < $ @ & b /.S.F.Q.Q.[.7X+X<X*X                              ",
"                ,X8X9X9X7X+XoXXX_.T.g X - @ $ ; - - $ ; @ - - - - ; % $ @ & M /.I.W.Q.Q.[.7XOX|.*X                              ",
"                tX8X9X5X7X7X.XXX`.R.b & @ $ - ; - - - ; @ - - - - - < @ - & K /.I.Q.Q._.OX7X7X|.*X                              ",
"                tX6X9XqX@X7X+X_._.R.K & @ @ - ; - - $ ; @ - - - - - < @ - & ( /.I.Q.Q._.OX7X7X|.,X                              ",
"                tX6X4X9X9X@X+XXX_.!.( & @ @ - - - - $ % @ $ - - - - < # $ & ` /.Q.Q.Q.].OX7X7X|.r.                              ",
"                p.4X9X0X7X@X+XXX_.'.] * @ @ - - - - $ % @ $ - - - ; > # @ & ] /.Q.Q.Q._.4X9X7X<X*X                              ",
"                b.6X9X0X7X@XOXXX_.'.] * - @ - - - - $ % # % - - - ; % # $ & } /.Q.Q.Q.[.5X9X7X<XtX                              ",
"                gX8X4X9X7X+X@X_._.].X.* - @ ; - - - $ % # % - - - ; $ + $ * X./.Q.Q.Q.XX7X9X7X<Xb.                              ",
"                fX6X9X9XOX7X@X`._.].X.* & + ; - - - $ % # % $ - - ; $ + @ * 3./.Q.Q.`.XX7X7X7X<Xb.                              ",
"                sX1X8X0X7X7XXXXX_.].>.* & . ; % - - $ % @ % $ - - ; $ # @ * 4.!.Q.Q.`.oX7X7X6X1Xb.                              ",
"                aX1X9XqX@X7XoX_._.[.3.= @ . , > $ % - $ @ $ ; ; - - % # @ * 4.'.`.`._.oX9X9X4X1Xh.                              ",
"                aXtX<X7XqX@XoX_._.{.5.= @ + # # > % $ @ @ @ @ # $ $ # . @ * 4.'.`.`._.+X9X7X4X1Xj.pX                            ",
"                  1X6X7XqXoXXXQ.`.].i.* @ # , # # + @ @ @ @ $ $ - - $ . @ = 5.]._.`..XqX7X5X7X1X3X;XuXpXnXhXrX                  ",
"                  tX1X6X@X@X+XQ.XX].s.= X . o # # + . + + . . o . @ # + . @ i.!..X.X.XqX7X5X7X>X=X-X;XuXuXlXNXhXlXBX            ",
"                  1X1XyX7X@XoXU.].(.s.4 & $ % < % $ $ - - % , > + @ # > @ * v./.`..X.X@X7X4X4XE.=X%X;X;XuXlXzXjXjXkXkXuXiX      ",
"                  ,X1X8X{.{.4X!.!./.v.7 = ; < 1 < < < < < 1 1 1 2 2 % 2 ; 7 x.T.].XX].7X0X4X<Xn.m.&X&XwX;XpXjXuXjXjXjXkXkXkXiXiX",
"                  ,X:X>X>X}./.>.s.n.4.6 7 0 r r h 9.9.9.j.$X%X%X$Xj.j.j.j.m.v.Y.T.T.c.^.}.^.^.v.m.m.&X-X-XuXuXkXlXkXlXhXbXhXlXVX",
"                                  h h     k.;XuXzXmXNXNXmXNXNXmXmXkXmXmXvXaX+._ ] ) f _ +._ +.+.j.&Xj.$Xk.    iXiXhX  hX        ",
"                                    l.      hX      BXBXbXBXBXiX            l.l.l.              pXpXpXiX                        ",
"                                                                                                                                ",
"                                                                                                                                ",
"                                                                                                                                ",
"                                                                                                                                ",
"                                                                                                                                ",
"                                                                                                                                ",
"                                                                                                                                "
};
