/* XPM */
static char *cbcc8ece16604ff9896b487798a2a9b3I1RXDP2q6N2cT0fm[] = {
/* columns rows colors chars-per-pixel */
"64 64 193 2 ",
"   c #033800",
".  c #0D4300",
"X  c #0F4A00",
"o  c #144702",
"O  c #134C01",
"+  c #194E01",
"@  c #155302",
"#  c #1A5404",
"$  c #165A03",
"%  c #1C5B04",
"&  c #1D550B",
"*  c #1E5A0C",
"=  c #1E4D11",
"-  c #205507",
";  c #235D05",
":  c #21550E",
">  c #235C0C",
",  c #295F0D",
"<  c #215412",
"1  c #255C12",
"2  c #295E14",
"3  c #245118",
"4  c #2B5E19",
"5  c #1F6006",
"6  c #1E620B",
"7  c #236404",
"8  c #296506",
"9  c #276907",
"0  c #24620C",
"q  c #2A640D",
"w  c #26690C",
"e  c #2B6B0C",
"r  c #34660F",
"t  c #306D0E",
"y  c #2D720E",
"u  c #31760F",
"i  c #266212",
"p  c #2A6414",
"a  c #276913",
"s  c #2C6B14",
"d  c #2D651A",
"f  c #2D6A1A",
"g  c #326514",
"h  c #326C15",
"j  c #3A6F17",
"k  c #31661D",
"l  c #336C1C",
"z  c #396E1C",
"x  c #2E7114",
"c  c #2E721A",
"v  c #337315",
"b  c #397515",
"n  c #367B15",
"m  c #397B17",
"M  c #34721C",
"N  c #3A741D",
"B  c #36791B",
"V  c #3B7B1C",
"C  c #2F6921",
"Z  c #336522",
"A  c #346C22",
"S  c #396E24",
"D  c #366628",
"F  c #366D29",
"G  c #3B6E2A",
"H  c #367222",
"J  c #3B7424",
"K  c #367921",
"L  c #3C7B23",
"P  c #3C742A",
"I  c #3D7B2A",
"U  c #3F6F31",
"Y  c #41761E",
"T  c #407C1E",
"R  c #406F2B",
"E  c #427624",
"W  c #427C24",
"Q  c #497C26",
"!  c #41762C",
"~  c #437C2B",
"^  c #4A7E2D",
"/  c #427631",
"(  c #457C31",
")  c #497E34",
"_  c #467E38",
"`  c #4B7D3A",
"'  c #38810E",
"]  c #378114",
"[  c #3C8617",
"{  c #3D811D",
"}  c #3E8123",
"|  c #3E8229",
" . c #42841E",
".. c #478C1F",
"X. c #438325",
"o. c #4A8426",
"O. c #458A25",
"+. c #4A8C26",
"@. c #44832B",
"#. c #4A842C",
"$. c #468A2B",
"%. c #4F8B2C",
"&. c #4D882C",
"*. c #498F2C",
"=. c #4C8C2C",
"-. c #4C8E2C",
";. c #4B8B2C",
":. c #50852F",
">. c #518E2C",
",. c #4D9124",
"<. c #4A9425",
"1. c #4A932A",
"2. c #499028",
"3. c #4F902A",
"4. c #4B9428",
"5. c #48902D",
"6. c #4C902D",
"7. c #4F962E",
"8. c #4E912C",
"9. c #52912E",
"0. c #529A2E",
"q. c #468232",
"w. c #488535",
"e. c #4B8433",
"r. c #458A31",
"t. c #468931",
"y. c #498A32",
"u. c #4D8931",
"i. c #4E8E30",
"p. c #488C35",
"a. c #4C8B33",
"s. c #4C843A",
"d. c #498D38",
"f. c #4E8B3A",
"g. c #528634",
"h. c #528F30",
"j. c #528D33",
"k. c #518C34",
"l. c #5A8F37",
"z. c #5A8F37",
"x. c #51863C",
"c. c #538C3B",
"v. c #598D3E",
"b. c #4F9032",
"n. c #4E9432",
"m. c #4E9132",
"M. c #4D9239",
"N. c #519632",
"B. c #539436",
"V. c #579736",
"C. c #529234",
"Z. c #599536",
"A. c #529933",
"S. c #559F30",
"D. c #569836",
"F. c #579B36",
"G. c #579B36",
"H. c #5A9B36",
"J. c #509238",
"K. c #569238",
"L. c #52973E",
"P. c #54933B",
"I. c #5A943C",
"U. c #559B3B",
"Y. c #569A3A",
"T. c #5B9A3D",
"R. c #62943D",
"E. c #629B3C",
"W. c #5BA534",
"Q. c #5DA33C",
"!. c #62A03D",
"~. c #4F8440",
"^. c #558D42",
"/. c #588D45",
"(. c #598C49",
"). c #569342",
"_. c #5B9542",
"`. c #569841",
"'. c #5C9B43",
"]. c #5E9B4C",
"[. c #639644",
"{. c #629A45",
"}. c #639B4B",
"|. c #6C9B4D",
" X c #63A344",
".X c #65AC44",
"XX c #65A24A",
"oX c #69A24D",
"OX c #6BAA4C",
"+X c #6CA554",
"@X c #6CA954",
"#X c #72AD5D",
"$X c #72B151",
/* pixels */
"+.7.2.y u +. .+.Q.+. . .X.7 V .X0.[ O.O.Q.] <.W.' ..,.+.+.e p ~ f l f I M B X.v z.W Q Q W N e x K I n.V 8.w i d h o.%.t @.L v n ",
"O.} O.N.*.n V y O.N.8.X.v { x } { { 1.n u ] 1.W.n ] ..e ;.I f H l J K f @.X.L e &.q r :.T v N.L M L ;.D.V.7 i W J o.T b l % e 9 ",
"% s M K M $ M L | y.| s @.@.K x x O.5.V y 9 7 y +.] V v w s I * I f * a @.X.s X.N N g 8 o.V m e v @.0 V B.v s g j.&.t h L s X.X.",
"L M c 0 s M f % K $ c c a M a p.w w } | c B U.V } *.V n X.@.0 > K K M M K $.M L h u.P.W m e O.x w M 5 B >.v e q &.e 8 v w.f L O.",
"@.@.@.I @.| % 5 $.c } $.L.t.6 s 5 6 s I d.c } O.n.A.D.N.-.O.a.$.L | J.} v s I W J J y.I ;.$.$.B v e N ;.o.t T &. .8 T N i i X.u ",
"L $.;.X.x B.B.s x B.$.$.y.$.y.X.c } M.@.L | K } O.O.V 8.X.X.-.w s | J.;.v N L 0 0 a $ s } B B.y.$.M L L &.b V  Xb % v `.q.J X.8.",
"y y n N.-.O.V 9 y V  X} { X.Q.X.G.+.7.O.y } V n.N.} V O.M J.I I L c a I J z q i K @.| M.m.O. .X.h @ a h W w # o.>.b b @.I ~ s N.",
"D.m e n { { O.n.y n O.V 5.5.V n { O. . .8.8.x $.U.L s M K @.s s c a % i #.J l J I M K $.B n b o.K $ I @.T &.T V C.v +.v p I 0 H.",
"X.-.m } V -.X.X.V 7 M x M m.| v x v v V O.O.*.*.*.;.7 7 w L n } M L W %.#.q # q @.c f f L K L M q.q.s h V v s W N &.X.v l H a B ",
"B M B v L X.} s L L K I p.K c | B M s 7 B } $.P.@.L s M B | n s U.B W N &.q z w.q.t.I f @ l h > l q.W w t -.h W N o.T T M I # s ",
"I @.I y.B | x I K t.c M J.t.K @.@.y.I x B % @ | y.K `.s M I K | a a p q W J O i J a 0 s % N ~ M l J L C.v X.a.@.w.q  .T z w.# h ",
"B | $.M n w I I $.M 0 0 a M 0 s * f K @.M @.t.M.M f f.f P w.y.L H l v.s N W W q W > O @.d p J w.2 & ; o.>.X.O > e.W V X.W f @.k.",
"*.V y O.V w L O.L $.a.X.X.M % I ).I i I s K @.@.M d.w.f H L M f.I M s I M N k.@.a.P l p J > d ( P p f q 0 P.L > M k.I.#.q.i % o.",
"n 8.X.V O.V V n X.x L $.P.i.;.s f H c K B M x K c 0 L l p i f J d H * y.@.B '.@.s ~ l O d Z & I S 2 I s ; @.I p P `.N J d > @ e ",
"{ G.2.u { V X.-.B.} B X.P.y.y.I I } N.U.O.V n n.M s I I f X P l O q.f 0 c s @.L 0 W ( k k A f ( I d # ~ ^ # - i ~ u.s P f l @.b ",
"n n G.Q.8.*.v @ m X.7 e @.`.K s e y { X.+.Q.} y.| c A I C H P P l O @ i M c s @.> p 2 ! # d P p H ( d A W s d W W J k.l d d @.>.",
"| n O.*.X.B y.c.j.B 7 $ i P.'.m v L v B B s @.| L s f i H I f K @.M H f w.f 0 f l p & A 2 > I @.h P / ^ j.b N ).l p N q d A v X.",
"w % K @.e v @.0 `.X.X.X.a s $.e B L @.y.a.y.| ).y.s H H M 0 q.K M m.@.i d P J H J ( & p A J s l p l P d b o.N P J l h L d i L b ",
"m n L t.*.{ h @ J.K u.J.$.L N e 7 -.v ;.;.v s K I M I L @.@.).s @.@.M s H f.@.@.w.P ( S 1 A w.* J d l p 8 +.#.@.( J u.W > l ;.D.",
"O.V M t.O.m N a K @.K X.X.v K 7 ;.X.$.$.} $.a y.I @.y.@.a P.> L L 0 f a l q.J I L #.~ P P I ~ p l J > ~ &.+.o.N A J j.j p J B 7 ",
"{ v c I B O.;.B s I #.P.P.k.y.s N ; M @.M I f 0 K @.H C a L f ~ ].H I H f i v W q q 1 d P 1 d d d l p i t V.q W p q X.h M e.;.e ",
"{ O.K I L *.X.@.L M L L @.J.M K h s J s 0 M p @ f 0 ( d > i f A I I I f A l k.L N W H s.H d i A c.f.I @.; >.N N J q o.W > M X.V ",
"X.L L $.n B M y.W P.X.;.L I v B L @.c.@.W @.H f M a d I H I P J f H ~ q.( d h L h > l J P P H l a.J d L t &.j.W z w V %.l l X.n ",
"U.| L P.N.N.f H i X.V ;.p w.P.$.P.J N '.#.l I l 0 I H i M K l p l f f d f d # e.I.0 l p A l i p i J s i X.8 W k.h ; X.h v #.$.9.",
"O.w B B N.;.0 H J.X.B a.M M ;.n v X.o.w &.o.0 W V ;.N M $.X.i.i 0 i.I A 1 d l l J p > l P ~ N # s J J h @.j.W l h N @.W 0 L V V ",
"O.X.} B ;.B M p M N ;.W a J X.+.T I.V.b +.V.u.L X.X.X.a.X.m N.W B y.J i A i J ~ d ~ A d X ^ @.L 0 H p i W W M w J ~ %.#.L l ; W ",
"{ n y.a L n B s % f J.;.J.M $.X.v e W V 9.>.T.@.X.v B N N.v $.;.V w I d d l s.w.~ & d 1 1 M v L l # H J - J #.p N ~ z ~ N q J #.",
"{ v | K B T.#.J.~ M P.v B a.;.N.V s s u.V X.W #.B. X@.0 X.;.a.L @.W l d J Z S > P A 1 S d i W W O * J ^.l - ~ w.^ g.J #.#.M z e.",
"*.O.L a w X.#.L H I u.-.X.v J.X.@.L l L W e J ~ v C.f.M J.K P.I s M f 1 A S 2 & q.i ( P d ^ M I.1 A P P J > > l W W z N #.J ^ ^ ",
"m n L `.a.$.W w.I 0 a.N.P.v m V #.W e.N W u.> s @.I.l a X.L @.a 0 I ~ ( P d P J l ~ A ( * J J N H S s.A A P l s.).N oXJ l z ~ _.",
"x v y.K L I I L @.X.v V P.@.X.m B @.L % n X.k.h -.o.K X.J.w K L > J ( S / A s ~ a.l p A A A l f / < A P d 4 ( d J ~ x.+ l P S , ",
"O.B B L X.I M l K $.-.e i.v m 9.m m T.k.o.&.W N v 7 N k.X.e | M l P ( J d l h N v L ~ P p S ~ P 2 A d O & 1 A # ~ l l J ^ d 2 1 ",
"8.m ;.n B.$.@.K m.P.n.V 8. XH.8.v m k.u.;.V 0 l 0 @.V N I.W e.h > l f H i M ~ L M q.l P : 1 P ! d @Xl l S p S l z W N k.J P A s.",
"9.!.;.-.V X.T.;.v a.X.X.m X.+.*.{ V X.v X.X.s K y.0 L #.J l E q d I P ^ l ~ M J i M ( l k : < G > J l l J ~ _.- v W L ;.# l ( ( ",
"v &.T.-.B N.@.W $.0 B X.$.O.X.N.O.n a.I XXP.W W a.z M N e.z N q l H l 0 @.0 # s d l l S k : < (.( ~ s.o l z.W q.0 a.y.0 l J e.z ",
"&.T V.V.X.X.P.a.s X.a a $.J.L J.P.v XXJ.I w.K W L L ~ J N W h ( e.W l @.c.M J f q.( J 2 S 4 d < ) J ^ l g.v.W W W ~ w.@.J ~ k.Q ",
"N.$XT 7 v v N P.y.I @.0 s K J.L f.I 0 J.y.L J '.L J q.P W z : d s J > z l ~ v.~ w.s.S . 4 G G : k A ~ Q p E {.~ #.@.a s N #.q z ",
"X.OXOX-.o.B.B B P.K y.f.L I I H l i J @.f J W a.u.a.i f g.I.! ! l #.W # l & A p P s.G x.4 / ` 4 l f.A l g , _.~ e.k.@.0 N J h p ",
"w w @.B.-.-.T.T.X.@.I @.I M w.@.c.I I.L J h N h u.@.q.> ~ q.S l @.w.w.W ~ - l & 2 (.Z Z s.! ` A w.l S J S 2 l w.K.C.$.m L N J d ",
"s $.B V $.n 9 $.O.a.X.J.@.t.I l I H q.M M J W X.V u.`.0 z 2 1 k #.#.p ^ f.d P A d d 1   / o Z k e.d , 4 k ) ~ > j ;.X.-.@.N N # ",
"M M M M B X.$ H.;.$.T.J.@.I @.M M q.I.J % V W W %.I.C.@.P 1 ~ d W I.q ~ q.d P # A F 2 Z G k ! ~ ~ J k d ! S ! p W V.w m X.h l q.",
"a.I '.J.y.W J.$XB.m L  XO.B B @.I.'.J z e >.W W %.v I.j.^ 1 l p ~ ~ J ~ w.# d 1 P ^._ Z 4 / S l A 1 S A ) : l #.J V v X.N W E l ",
"@.w.@.J.T.N B N.n -.H.N.m X.% L N % i M W o.X.W @.j.&.W w.f.i q.s J l ^ l d f.S d d d P 1 2 k ( & d ) 2 d l z W w.i c.@.v W z.J ",
"L W a.@.@.a.;.X.m 7 J.N.v V L B.u.`.J P.T &.T ; q k.&.e l ~ P c.% J ~ 1 & l J ( 1 l S 1 d / S ( Z / P d J E #.p l e.J > z.P.#.W ",
"w.M y.y.s '.W #.T.L $.-.P.L #.T.v N @.u.o.%.K.g q ~ #.#.J P q.^ w.> l q.q.f @ w.H & w.l p s.2 _ A d A ( J P W W J @.J M z W q J ",
";.L i.@.y.M B T.;.@.L w B s M y.@.0 @.u.0 j.o.W I.#.N W @.1 l q.q.> # l H q.~ d d q.f J d d 2 k Z 1 P ! d p E q.J f J L s N p #.",
"X.'.B.a.$.% M W M M a.@.M 0 % @.L @.W u.J I.o.j ^ J 2 c.L l P f.p l l p ^ e.( a l q.f l l s./ P x.S k P ! & ~ J @.I h e @.W ~ # ",
"w | K y.@X'.@.K a y.XXP.$.W L W v M z.#.#.Q z.Q W #.2 A l d ( p ~ c.> ~ ~ l @.W M q.f f l l A x.( k d /.4 ! 1 x.`.M u.M h H d d ",
"o.P.q.I I $.i.i.e L +.+.&.o.u.P.q h E s.v.^ ^ j j e.P p p p * P S P ~ > # * W w.L w.).p > ! s.( S P c.S A k 4 d P A p A ( d J i ",
"V.#.1 P @.M '.s i.J.V >.j.7 Z.I.g v.x.E 2 E g.^ Q j ~ ~ A A s.~ / 2 s.# d H L P.'.s ( ( O # d / d P l ( k 2 ! x.G & 2 ! 1 & ^.* ",
"%.k.H P `.@.s t.y.0 ;.C.W M J ~ c.^ J [.|.g E R.Q E 0 d ~ l q.J / 2 ^ l A f ^ c.l l ~ P l d P & d H A A d + A ) d S A /.1 * A # ",
"X.I.J ( ).@.I ).H f W #.> p S ~ #.h Q z E [.:.Y ; N J i l H w.I J 2 d d 2 s.q.L > > d & A l ^.: w.I l l k d k d S ! k i * l l f ",
">.&.c.( w.I W ).w.).W p _.d /.w.O s {.N j z.:.{.#.J ~ W h p f i s.( d ~ / P J ^ p ! / d l ( ! k l i w.H > A p ( ( & ^.( O J ~ I ",
"C.j.c.I.W s @.c.l I e.c.l P s.d L #.k.W o.N :._.N u.h N v W I.~ & f ( J A 2 A J 1 x.( Z > A S 1 J @.).J . & S A d l P ^ f K @.I ",
">.E.v W %.m W '.W M _.~ q v.& l q.W N W 8 o.k.z h w.W X.e i ^ ( d f f.s.P > ( l 4 ! 1 A J & l A J ).H J q.v.1 p p d }.H p ~ L 0 ",
"Z.o.~ @.#.o.C.C.w.@.a.z.z.W W P e.'.L T b Q #., L l k.X.j.'.# p J # q.J i l p A ! k & k : , c.I J K p ^ c.l l P 1 > l i i @.L 0 ",
"W o.[.#.W W T Z.h i J e.%.k.q L #Xt.@.C.I.j.z.Q d M e.N @.c.p > L _.P A l ^ x., s.x.2 1 l ! J ~ e.# f J d @ J s.( ( f J J f J i ",
"N z e.{.e.v oXXXJ e.+XL N j.W I.P l J @.&.{.z.q.q.w.a.y.M L J d s v.J J W c.l d ! z l - ( J # d J W ^ P > J w.~ d ~ p p K 0 w.L ",
"e.p P l P c.I.#.d c.S l e.#.W c.P f N @._.I.d O l i @.M c.~ e.1 # ( > J > P J ~ k 2 Q e.1 J s.H W ).q.l l s.d p f ( f.f i ~ J ^ ",
"s.x.~ 1 ~ l I.l A s.& P P.XXJ q.c.# d k.W p P l H a.H W a.L d P A ) A l ! l ! k l ( ~ ~ 2 1 P ~ P J e.q.J A J P d & P I p d M > ",
"A P s.^.( P I.@.P _ Z ].@.a.J c.s w.q.e.^ J d J P l @.f.P M l z.x.o 4 _ ^.l > & d i ~ l ) < 2 s.> 2 J ^ ! # l l l l > ~ l p P P ",
"w.J ~ J > #.#.L ~ x._ H J k.H > l @.v.~ ^ z.E > W e.K l i q.J #.4 ` = _ J & ~ c.J X > p : A P S ~ e.~ + S ! 2 # d P J d H > l c.",
"w.#.{.v ~ I.I.W l ^.C f I.L t.q.k.> W P ! l E w L XXf J l ~ z.J 4 D = D P p i 1 P ( i ~ S _ 4 . P k J S x.~ & 2 d 2 l x.A p > ~ ",
"#.T.T.I.W W &.W {.^.d A T.L W @XL z l J s.l j W k.W a f J M W }.R D 3 U ) l & d * f ^ ).~.< d : + l S ! s.2 1 P S d 1 P J ( O l "
};
