/* XPM */
static char *result[] = {
/* columns rows colors chars-per-pixel */
"64 64 22 1 ",
"  c #6E6D68",
". c #605E59",
"X c #65635E",
"o c #70706E",
"O c #787671",
"+ c #7E7E79",
"@ c #696762",
"# c #7A7975",
"$ c #75736E",
"% c #6B6A65",
"& c #73706A",
"* c #5B5954",
"= c #7A7B79",
"- c #80817E",
"; c #54524D",
": c #747573",
"> c #4C4A45",
", c #868683",
"< c #43423C",
"1 c #383732",
"2 c #2B2A25",
"3 c #171613",
/* pixels */
"#: =O% ::o#-=-+;@#&.@@X  @@&@%&&% @%X>1@% o % o:-,-X;==o%o oO,--",
"%% $:$%$o@o=:-#>o++-:#-:%#++=+=$o$#o*>1o-#:::#===:=*>o:: o  @:-#",
"%X :o  $  $-=-X1 +=-:o:&*...X&O @%%$.;1:,,,-,---:==.>=+=o%....@%",
" oo @XX@.XXo .>3<;*@@..X.;;>Xo X;;;;;13*=====oooooo*<%o @*****;.",
";*X...;*..X.X.*>>;<>;*;.XX@*2211122<>122;**;;;;;;*;>1;*;><1>>;;;",
"$###+#++##+##++-+#$% &%@@ &O1>% @ XXO@;@:+-=o:#==-+,-=+$OX>@@@% ",
"---,--,,+,-##+Oo$$#&@@%X.*.@<;$+$&&@@%@&OO $#+#OO+$#O&$$+&;&o#oo",
",+--+-+++-+$#++O && %@.XX..%<>%&$$ X.X..@Oo&o#OO$& $$%$&+$>$+-+=",
"#$$O# o%@&   O$$OO$$O&XX@@X@<>X**..**...XO+Oo:O-#&& $####&<Xoo$#",
"O#O&& %@X  & O#&O##$OO%%XXX.1<.*;;;**...%#+&O: +# %%OO+++#;&O+=O",
"X%o%X@@%O&OO%&&$##O$O$&$$&O@1>&X..*X*.@#OO===OXO+$ O+##=+$*#$#O ",
";;;*.;*...*X.;*X@.*;><;;>;;>2;X..*;*;>;.X**.XX;*..;**;;*;>1;**;.",
"X@**.%o X.%% o%. @*>2333>**.;.X*;>>121>.;<<<;X@X.<31;***XX...*X@",
"+-,-$-,-O $ oO O,,++*32@:=#O+++#::-#o#,,,=X.:-,-,&1 $=-=-==,-=-,",
"#:oo:==-,+ @X@$O+-,+$2>@@X%o&#O$  +---=:o XX@ :+-&*-:$:oo::=,=+=",
" %o=---,+:% @@#O==+++<;.;*X@% oX@o##::::o::::X%#-@.,=+-:o:o:-,-=",
"---=::=:: @@%   :oo$+>>*;;*.@XXXX  X@@:=&o==o@ O-@*,---++o% o===",
"O#-#:#=OOo %%$ % oo$O><..;;.XX*.*;**X%o##+# XX.XO.*--#=-#o$#:ooo",
"& #+#==-O #=++OO&#:&O;<*XX:oXX..X....@#O  $+,$X*.;;#==+--++##:::",
" %%O&#=##$$ $O#-+=#O&X.XX%o %%%@....X@%% #+,-#$$#;>oO+---+---=#+",
"o$&$ $$&#$$ $+--==##&@X @X@o:oX@.;*X@%%% && &%#--X>#=-=OOo #+#Oo",
"=& $ $O&O$#:OO:$##O&&.*....@o X@o@.X@ $##--+-,+=#X<OO=O#--==+-+:",
"#$&&$O#$$&$O& O+#O+O$*;.@ @XXX%@@% @@@$OO#+-,--=#@<o:-#+---+--+=",
"&$$&$$$$%% O& o#===$&..: %o%X.;*X@oX.Xo##+#:=+==$;1::==###+##-++",
"+$OO$$O+#&OO$XX&O=OO$X.:X%::%X XX@%%@ :##$:#&O oO*1$:o##O:+=:o::",
"$$O+#--,+O+O&% $#++#$;<@$:=oo%=:.<* %:#O#---O#O+,@1=,$O++o$==+=:",
" OO#++-,+OO#&o++=+--#>1 +-O$o :oooo %o$#o=##---++.<==oo#=o:===-=",
"@$$O$$#--:O-+:=+=#+++>1@:++-$o#&@@Xo  $-:o:#==---.1:#+==+-+=: o=",
" &$OOO=##o +#ooO:#$#$>1@O+=+O$#$%%%  Xo=:o: o+=o$.1:-#==--,-+=#-",
"&$O#+-OOOo%%% o:o  &$>1X ++=+#O$@ $& %X% X%$=##OOX<@=&o   :=-,--",
"%@O++,+-#:$ @% o$$O$+>2. O+++O  &o&OO& @ ooO+++#,$>@:=##+#+-#   ",
".X $##O-O#+Oo #:&&$$&13.&$$###$O##=+O+=oo+$O==+#-&>Xo::===+--:$$",
"%@ o$#$O$$O#%@ %.***>33; $ &$###O&$O$#$ %::###&$O@>%===+$@ :-:#=",
"X****..*><>>>;>>><<23332>;;.****.***.***..*;*.;>><1*X%o#O%X.@X%%",
"%.*.X@%%@..>23321>;;*..;>>><<>>><11222333211<>;;;;**;;>;;>><<>>;",
"#OO#--=-,,,=<31.&&O$&&+++#+#+-O#O$@X>232>. O+-,-,,,,,,,,,,,---,,",
"% o% :::=$$O>3; %OO&% +O%## $OO#-#$+&>2%+#-++O$&O-#& ##=###,,#o:",
"o%o @%@@:  &>3*&&#$&O#++@X#++#&$OO#,,$<,,&#,+$  $++#&@@@XX@X@@% ",
"o%.% $o@% X@;3.%&#O #O%$&@%OO#O$#+O&&%>-,-=+#OO$$#+#O&%@@X%@XX $",
"$$#++-#$$#o$*2X@$#+$O#  %&%$#O#O++#&&&;=##O#-,-O &+,-+O#O$OOOO$$",
"oO-=--++,-+-*2 OO$$$  &$$OO$#O###O$$$O.O===OO##OO$#+++##$$ $::#O",
"=##o:-+#-++-@1@%@.XX OO+#O$&@ O$&&&%&#.X@  % $#=+ &##O& %$$&:O#O",
"-#-=o#-#-#O&.1X@XX%  &O$&&#$ &OO&$%@ O;@X% @X@  $&$#O$ .X%#Oo$OO",
"$o#-&$+#+###%<X@% % % $&@@&+OO#O$$$&.%>*.@%..X..Xo##++-#+#+-+#O$",
"$$o$%&-#@X%+ <X%%@X% %% @.X&&&OO$ &&&$<*@o%%%%%@@%$:-,,,,+-,+,+#",
"@X O+==O&& @X<X$&&@%%@ &%.XX@@@XX@.%OO>.X $ $&%o$oo:o+,,=+-,,-:+",
"O#,&@@ $@@# X<@##$..@XXooo%  %*>.%%%%@>& :#O &X%oO XX%#$%@=-=#$O",
"++O%%%X$+o%%;3;@o$& @;<*...*..;;*;*.X@.#O$ O++++$$oo$%.%&@@ &X;@",
"....@@*.@X*.>11>;;*;><<11>21><1<<<<<;;>*;**;***;>*;>;;>;.X;>*%X*",
"$O#&###==###++#$ $&&%X@>1.1>*X =#:o:: XX.@%@@X;32*<1 #O$=++-++,-",
"O$+$+-:oo@ O @@%X%@ &X@;;*<..X =-+#::$@%$$$ X .32*;.+,-++$+++++-",
"O@ $+-#  .%+$ o#o.**XXX.*;1>>*.%o:#::&@%$O@X...32..@%o#-OO++++#$",
"&%%@+,==# X&#$:-,:  @X@@@;<;;;Xo@ #& &@%&&%%X*.21*.%oo &&O++:OO&",
"&&#o=-O:o&%@ %&:==#OoX.X%*>*.%$$%@$& %  $ &$ %%2<X@%o:#oo::=o  o",
" @%%o++# %o$ @X@&$$O#X;*X.>*X & @X%&%@%%@% :oo 2<@%X. :oo:oo%ooo",
"&o %o-+:@@%oo%@@@% O-oX.X*<**X %@X$   X@%% o@%%1<..*.%:oo#:@@::%",
"& X.@$:%*.X #+=X;*..XXXX@*1*.%#$&X@%% % %@%oX..1<.X@%:=:oo@o:#:o",
"&-O X@&XX@XXo:o.;.%X.*;>;;2**X##O%X %@@XX%%.*X@<<X@o oo    %o%@o",
"o:oO X @...@X% %@%$O&@.**;2>>;..X..XX@...@%><>*1<@oo%X%%o= *XX**",
"@@*.%.XXX...X%  X*@% @Xo%*1.*;>.@X....@:---%*;<11X::%XX o=o @XX.",
"*@@**.*.@.@@o::   :O=:oo@;>.;<<*....*;Xoo %@.;<21*XX@X..*.@@*.%X",
"21<><<>>;>;>>>;;;>>;**;><11<132<1<1111<<<<<><223311<<>>>>>>;>>*;",
".@@X<2oO$$$$&&o   X@ o %%%O$o@.XX.>2<**>><>;*;>>;;;>><<>>>><>>13",
"#-+# <:OO#=O$$#$&&$OOo $$&&&# %&&&#..%&%%%X..%$ @o%@&$ @&&%&O#@2"
};
